# xmcd
#
# Track frame offsets:
#	150
#	17715
#	34515
#	49470
#	65327
#	85557
#	104342
#	122515
#	136730
#	155010
#	168347
#
# Disc length: 2460 seconds
#
# Revision: 1
# Processed by: cddbd v1.4PL0 Copyright (c) Steve Scherf et al.
# Submitted via: audiograbber 1.82.02
#
DISCID=84099a0b
DTITLE=Ali Güven - Gönlünden Taþýndým
DYEAR=2003
DGENRE=Pop
TTITLE0=Gönlünden Taþýndým
TTITLE1=Her Seven Kavuþmaz
TTITLE2=Gittin Gideli
TTITLE3=Þehrin Iþýklarý
TTITLE4=Gözlerine Yemin Bozdum
TTITLE5=Ýmsi Lazým Deðil
TTITLE6=Uçurdum Çiceði
TTITLE7=delisin Dolusun
TTITLE8=Seninle Doðdum
TTITLE9=Eylül Koydum Adýný
TTITLE10=Annesinin Birtanesi
EXTD=metin@metin.nom.tr
EXTT0=
EXTT1=
EXTT2=
EXTT3=
EXTT4=
EXTT5=
EXTT6=
EXTT7=
EXTT8=
EXTT9=
EXTT10=
PLAYORDER=
